<svg width="102" height="102" viewBox="0 0 102 102" fill="none" xmlns="http://www.w3.org/2000/svg">
<rect x="1.25" y="1.25" width="99.5" height="99.5" rx="24.25" fill="#FFCD3A"/>
<rect x="1.25" y="1.25" width="99.5" height="99.5" rx="24.25" stroke="#CCCCCC" stroke-width="2.5"/>
<rect x="3.75" y="3.75" width="94.5" height="94.5" rx="21.75" stroke="black" stroke-width="2.5"/>
<path d="M33.7559 57.0358H68.2448V32.8936H33.7559V57.0358ZM40.6536 54.4491H38.9292C38.7005 54.4491 38.4812 54.3583 38.3195 54.1966C38.1578 54.0349 38.067 53.8156 38.067 53.5869C38.067 53.3582 38.1578 53.1389 38.3195 52.9772C38.4812 52.8155 38.7005 52.7247 38.9292 52.7247H40.6536C40.8823 52.7247 41.1016 52.8155 41.2633 52.9772C41.425 53.1389 41.5159 53.3582 41.5159 53.5869C41.5159 53.8156 41.425 54.0349 41.2633 54.1966C41.1016 54.3583 40.8823 54.4491 40.6536 54.4491ZM38.9292 49.2758H43.2403C43.469 49.2758 43.6883 49.3666 43.85 49.5283C44.0117 49.69 44.1025 49.9093 44.1025 50.138C44.1025 50.3667 44.0117 50.586 43.85 50.7477C43.6883 50.9094 43.469 51.0002 43.2403 51.0002H38.9292C38.7005 51.0002 38.4812 50.9094 38.3195 50.7477C38.1578 50.586 38.067 50.3667 38.067 50.138C38.067 49.9093 38.1578 49.69 38.3195 49.5283C38.4812 49.3666 38.7005 49.2758 38.9292 49.2758ZM38.067 46.6891C38.067 46.4604 38.1578 46.2411 38.3195 46.0794C38.4812 45.9177 38.7005 45.8269 38.9292 45.8269H45.827C46.0556 45.8269 46.275 45.9177 46.4367 46.0794C46.5984 46.2411 46.6892 46.4604 46.6892 46.6891C46.6892 46.9178 46.5984 47.1371 46.4367 47.2988C46.275 47.4605 46.0556 47.5513 45.827 47.5513H38.9292C38.7005 47.5513 38.4812 47.4605 38.3195 47.2988C38.1578 47.1371 38.067 46.9178 38.067 46.6891ZM50.1381 54.4491H44.1025C43.8739 54.4491 43.6545 54.3583 43.4928 54.1966C43.3311 54.0349 43.2403 53.8156 43.2403 53.5869C43.2403 53.3582 43.3311 53.1389 43.4928 52.9772C43.6545 52.8155 43.8739 52.7247 44.1025 52.7247H50.1381C50.3668 52.7247 50.5861 52.8155 50.7478 52.9772C50.9095 53.1389 51.0003 53.3582 51.0003 53.5869C51.0003 53.8156 50.9095 54.0349 50.7478 54.1966C50.5861 54.3583 50.3668 54.4491 50.1381 54.4491ZM63.0714 54.4491H53.587C53.3583 54.4491 53.139 54.3583 52.9773 54.1966C52.8156 54.0349 52.7248 53.8156 52.7248 53.5869C52.7248 53.3582 52.8156 53.1389 52.9773 52.9772C53.139 52.8155 53.3583 52.7247 53.587 52.7247H63.0714C63.3001 52.7247 63.5194 52.8155 63.6811 52.9772C63.8428 53.1389 63.9336 53.3582 63.9336 53.5869C63.9336 53.8156 63.8428 54.0349 63.6811 54.1966C63.5194 54.3583 63.3001 54.4491 63.0714 54.4491ZM60.4848 49.2758H63.0714C63.3001 49.2758 63.5194 49.3666 63.6811 49.5283C63.8428 49.69 63.9336 49.9093 63.9336 50.138C63.9336 50.3667 63.8428 50.586 63.6811 50.7477C63.5194 50.9094 63.3001 51.0002 63.0714 51.0002H60.4848C60.2561 51.0002 60.0368 50.9094 59.8751 50.7477C59.7134 50.586 59.6225 50.3667 59.6225 50.138C59.6225 49.9093 59.7134 49.69 59.8751 49.5283C60.0368 49.3666 60.2561 49.2758 60.4848 49.2758ZM57.8981 50.138C57.8981 50.3667 57.8072 50.586 57.6455 50.7477C57.4838 50.9094 57.2645 51.0002 57.0359 51.0002H46.6892C46.4605 51.0002 46.2412 50.9094 46.0795 50.7477C45.9178 50.586 45.827 50.3667 45.827 50.138C45.827 49.9093 45.9178 49.69 46.0795 49.5283C46.2412 49.3666 46.4605 49.2758 46.6892 49.2758H57.0359C57.2645 49.2758 57.4838 49.3666 57.6455 49.5283C57.8072 49.69 57.8981 49.9093 57.8981 50.138ZM51.0003 43.2402C51.0003 43.4689 50.9095 43.6882 50.7478 43.8499C50.5861 44.0116 50.3668 44.1024 50.1381 44.1024H43.2403C43.0116 44.1024 42.7923 44.0116 42.6306 43.8499C42.4689 43.6882 42.3781 43.4689 42.3781 43.2402C42.3781 43.0115 42.4689 42.7922 42.6306 42.6305C42.7923 42.4688 43.0116 42.378 43.2403 42.378H50.1381C50.3668 42.378 50.5861 42.4688 50.7478 42.6305C50.9095 42.7922 51.0003 43.0115 51.0003 43.2402ZM46.0796 36.952C45.9225 36.7894 45.8356 36.5716 45.8376 36.3455C45.8396 36.1195 45.9302 35.9032 46.0901 35.7434C46.25 35.5835 46.4662 35.4928 46.6923 35.4908C46.9184 35.4889 47.1362 35.5758 47.2988 35.7329L49.0232 37.4573C49.1849 37.619 49.2757 37.8383 49.2757 38.0669C49.2757 38.2955 49.1849 38.5148 49.0232 38.6765L47.2988 40.4009C47.1362 40.558 46.9184 40.6449 46.6923 40.6429C46.4662 40.641 46.25 40.5503 46.0901 40.3904C45.9302 40.2306 45.8396 40.0143 45.8376 39.7882C45.8356 39.5622 45.9225 39.3444 46.0796 39.1817L47.1945 38.0669L46.0796 36.952ZM40.7442 39.4059L42.4686 35.957C42.5708 35.7524 42.7502 35.5967 42.9672 35.5242C43.1842 35.4518 43.4211 35.4685 43.6257 35.5708C43.8304 35.673 43.9861 35.8523 44.0585 36.0693C44.1309 36.2863 44.1142 36.5232 44.012 36.7279L42.2875 40.1767C42.1853 40.3814 42.006 40.5371 41.789 40.6095C41.572 40.682 41.3351 40.6652 41.1304 40.563C40.9258 40.4608 40.7701 40.2815 40.6977 40.0645C40.6252 39.8475 40.642 39.6106 40.7442 39.4059ZM40.6536 43.2402C40.6536 43.4689 40.5628 43.6882 40.4011 43.8499C40.2394 44.0116 40.0201 44.1024 39.7914 44.1024H37.2047C36.9761 44.1024 36.7568 44.0116 36.5951 43.8499C36.4334 43.6882 36.3425 43.4689 36.3425 43.2402C36.3425 43.0115 36.4334 42.7922 36.5951 42.6305C36.7568 42.4688 36.9761 42.378 37.2047 42.378H39.7914C40.0201 42.378 40.2394 42.4688 40.4011 42.6305C40.5628 42.7922 40.6536 43.0115 40.6536 43.2402ZM35.7329 37.4573L37.4574 35.7329C37.62 35.5758 37.8378 35.4889 38.0639 35.4908C38.2899 35.4928 38.5062 35.5835 38.6661 35.7434C38.8259 35.9032 38.9166 36.1195 38.9186 36.3455C38.9205 36.5716 38.8336 36.7894 38.6766 36.952L37.5617 38.0669L38.6766 39.1817C38.7589 39.2613 38.8246 39.3564 38.8698 39.4616C38.915 39.5668 38.9388 39.68 38.9398 39.7944C38.9408 39.9089 38.9189 40.0225 38.8756 40.1284C38.8322 40.2344 38.7682 40.3307 38.6872 40.4116C38.6063 40.4926 38.51 40.5566 38.4041 40.5999C38.2981 40.6433 38.1846 40.6651 38.0701 40.6641C37.9556 40.6631 37.8424 40.6393 37.7373 40.5941C37.6321 40.549 37.5369 40.4833 37.4574 40.4009L35.7329 38.6765C35.5713 38.5148 35.4805 38.2955 35.4805 38.0669C35.4805 37.8383 35.5713 37.619 35.7329 37.4573Z" fill="black"/>
<path d="M70.8316 29.4443H31.1694C30.9407 29.4443 30.7214 29.5352 30.5597 29.6969C30.398 29.8586 30.3071 30.0779 30.3071 30.3066V60.4843H71.6938V30.3066C71.6938 30.0779 71.603 29.8586 71.4413 29.6969C71.2796 29.5352 71.0603 29.4443 70.8316 29.4443ZM69.9694 57.0354C69.9694 57.4928 69.7877 57.9314 69.4643 58.2548C69.1409 58.5782 68.7023 58.7599 68.2449 58.7599H33.756C33.2987 58.7599 32.8601 58.5782 32.5367 58.2548C32.2133 57.9314 32.0316 57.4928 32.0316 57.0354V32.8932C32.0316 32.4359 32.2133 31.9973 32.5367 31.6739C32.8601 31.3505 33.2987 31.1688 33.756 31.1688H68.2449C68.7023 31.1688 69.1409 31.3505 69.4643 31.6739C69.7877 31.9973 69.9694 32.4359 69.9694 32.8932V57.0354ZM59.7779 65.8793L61.0695 69.1066H74.7314L71.9723 62.2088H30.0286L27.2695 69.1066H40.9323L42.2256 65.8801C42.3524 65.5597 42.5726 65.2849 42.8578 65.0914C43.1429 64.898 43.4796 64.7948 43.8242 64.7954H58.1768C58.5216 64.7943 58.8589 64.897 59.1445 65.0904C59.4301 65.2837 59.6509 65.5586 59.7779 65.8793Z" fill="black"/>
<path d="M43.8234 66.52L42.7887 69.1067H59.2114L58.1759 66.52H43.8234ZM26.8574 70.8311H75.1419V72.5556H26.8574V70.8311Z" fill="black"/>
</svg>
